<svg width="30" height="19" viewBox="0 0 30 19" fill="none" xmlns="http://www.w3.org/2000/svg">
<g clip-path="url(#clip0_614_156)">
<path d="M1.63818 0H28.3618C29.2651 0.00444548 30 0.677936 30 1.50035V17.4996C30 18.3243 29.2578 19 28.3521 19H1.63818C0.737305 18.9956 0 18.3221 0 17.4996V1.50035C0 0.677936 0.734863 0.00444548 1.63818 0Z" fill="#FF9933"/>
<path d="M0 6.33398H30V12.6688H0V6.33398Z" fill="white"/>
<path d="M0 12.666H30V17.4983C30 18.3229 29.2578 18.9986 28.3521 18.9986H1.63818C0.737305 18.9942 0 18.3207 0 17.4983V12.666Z" fill="#128807"/>
<path d="M17.7832 9.49877C17.7832 8.09844 16.5381 6.96484 15 6.96484C13.4619 6.96484 12.2168 8.09844 12.2168 9.49877C12.2168 10.8969 13.4619 12.0327 15 12.0327C16.5381 12.0327 17.7832 10.8991 17.7832 9.49877Z" fill="#000088"/>
<path d="M17.4326 9.49928C17.4326 8.27455 16.3437 7.2832 14.9985 7.2832C13.6533 7.2832 12.5645 8.27455 12.5645 9.49928C12.5645 10.724 13.6533 11.7154 14.9985 11.7154C16.3437 11.7154 17.4326 10.724 17.4326 9.49928Z" fill="white"/>
<path d="M15.4854 9.49924C15.4854 9.25473 15.2681 9.05469 14.9995 9.05469C14.731 9.05469 14.5137 9.25251 14.5137 9.49924C14.5137 9.74374 14.731 9.94156 14.9995 9.94156C15.2681 9.94156 15.4854 9.74374 15.4854 9.49924Z" fill="#000088"/>
<path d="M17.534 9.8053C17.5437 9.74528 17.4949 9.68971 17.429 9.68082C17.3631 9.67193 17.302 9.71639 17.2923 9.7764C17.2825 9.83641 17.3313 9.89198 17.3972 9.90087C17.4656 9.90754 17.5266 9.86531 17.534 9.8053Z" fill="#000088"/>
<path d="M15.001 11.7166L15.084 10.3874L15.001 9.75391L14.918 10.3874L15.001 11.7166Z" fill="#000088"/>
<path d="M17.3612 10.3915C17.388 10.3359 17.3563 10.2693 17.2953 10.247C17.2342 10.2226 17.161 10.2515 17.1366 10.3071C17.1097 10.3626 17.1415 10.4293 17.2025 10.4515C17.266 10.4738 17.3368 10.4471 17.3612 10.3915Z" fill="black"/>
<path d="M14.3691 11.6421L14.8281 10.3774L14.9282 9.74609L14.667 10.3396L14.3691 11.6421Z" fill="black"/>
<path d="M17.0291 10.9173C17.0706 10.8684 17.0609 10.7995 17.0072 10.7617C16.9534 10.7239 16.8778 10.7328 16.8363 10.7817C16.7947 10.8306 16.8045 10.8995 16.8582 10.9373C16.9119 10.9751 16.9876 10.964 17.0291 10.9173Z" fill="black"/>
<path d="M13.7812 11.4191L14.5845 10.3056L14.8604 9.71875L14.4404 10.2278L13.7812 11.4191Z" fill="black"/>
<path d="M16.556 11.3474C16.6097 11.3097 16.6195 11.2407 16.578 11.1918C16.5364 11.1429 16.4608 11.1341 16.4071 11.1718C16.3533 11.2096 16.3436 11.2785 16.3851 11.3274C16.4266 11.3741 16.5047 11.3852 16.556 11.3474Z" fill="black"/>
<path d="M13.2793 11.0667L14.3706 10.1798L14.8027 9.67969L14.2534 10.0731L13.2793 11.0667Z" fill="black"/>
<path d="M15.9808 11.6527C16.0418 11.6283 16.0736 11.5638 16.0467 11.5082C16.0199 11.4527 15.9491 11.4238 15.888 11.4482C15.827 11.4704 15.7953 11.5371 15.8221 11.5927C15.8465 11.6483 15.9173 11.6749 15.9808 11.6527Z" fill="black"/>
<path d="M12.8906 10.6075L14.1992 10.0073L14.7583 9.625L14.1138 9.87617L12.8906 10.6075Z" fill="black"/>
<path d="M15.3347 11.8067C15.4007 11.7978 15.447 11.7422 15.4397 11.6822C15.43 11.6222 15.3689 11.58 15.303 11.5866C15.2371 11.5955 15.1907 11.6511 15.198 11.7111C15.2054 11.7733 15.2664 11.8156 15.3347 11.8067Z" fill="black"/>
<path d="M12.6504 10.0732L14.0835 9.80202L14.7329 9.56641L14.0396 9.65532L12.6504 10.0732Z" fill="black"/>
<path d="M14.6663 11.8071C14.7322 11.816 14.7932 11.7716 14.803 11.7115C14.8128 11.6515 14.7639 11.596 14.698 11.5871C14.6321 11.5782 14.5711 11.6226 14.5613 11.6826C14.554 11.7449 14.6004 11.8005 14.6663 11.8071Z" fill="black"/>
<path d="M12.5645 9.50135L14.0244 9.57693L14.7202 9.50135L14.0244 9.42578L12.5645 9.50135Z" fill="black"/>
<path d="M14.0198 11.6527C14.0809 11.6772 14.1541 11.6483 14.1785 11.5927C14.2029 11.5371 14.1736 11.4704 14.1126 11.4482C14.0516 11.4238 13.9783 11.4527 13.9539 11.5082C13.9295 11.5638 13.9588 11.6283 14.0198 11.6527Z" fill="black"/>
<path d="M12.6504 8.92578L14.0396 9.34366L14.7329 9.43479L14.0835 9.19696L12.6504 8.92578Z" fill="black"/>
<path d="M13.4424 11.3474C13.4961 11.3852 13.5718 11.3763 13.6133 11.3274C13.6548 11.2785 13.645 11.2096 13.5913 11.1718C13.5376 11.1341 13.4619 11.1429 13.4204 11.1918C13.3814 11.2407 13.3911 11.3097 13.4424 11.3474Z" fill="black"/>
<path d="M12.8906 8.39062L14.1138 9.12191L14.7583 9.37308L14.1992 8.99077L12.8906 8.39062Z" fill="black"/>
<path d="M12.9703 10.9173C13.0118 10.9662 13.0875 10.9751 13.1412 10.9373C13.1949 10.8995 13.2047 10.8306 13.1632 10.7817C13.1217 10.7328 13.046 10.7239 12.9923 10.7617C12.941 10.7972 12.9288 10.8684 12.9703 10.9173Z" fill="black"/>
<path d="M13.2793 7.93359L14.2534 8.92716L14.8027 9.32281L14.3706 8.82047L13.2793 7.93359Z" fill="black"/>
<path d="M12.6375 10.3915C12.6644 10.4471 12.7352 10.476 12.7962 10.4515C12.8572 10.4271 12.889 10.3626 12.8621 10.3071C12.8353 10.2515 12.7645 10.2226 12.7034 10.247C12.6424 10.2693 12.6131 10.3337 12.6375 10.3915Z" fill="black"/>
<path d="M13.7812 7.58008L14.4404 8.77147L14.8604 9.28048L14.5845 8.69589L13.7812 7.58008Z" fill="black"/>
<path d="M12.4661 9.80485C12.4759 9.86487 12.5369 9.9071 12.6029 9.90043C12.6688 9.89154 12.7152 9.83597 12.7078 9.77596C12.6981 9.71594 12.637 9.67371 12.5711 9.68038C12.5028 9.68705 12.4564 9.74262 12.4661 9.80485Z" fill="black"/>
<path d="M14.3691 7.36133L14.667 8.66608L14.9282 9.25733L14.8281 8.62607L14.3691 7.36133Z" fill="black"/>
<path d="M12.4661 9.19588C12.4563 9.25589 12.5052 9.31146 12.5711 9.32035C12.637 9.32924 12.698 9.28479 12.7078 9.22478C12.7176 9.16476 12.6687 9.10919 12.6028 9.1003C12.5344 9.09363 12.4734 9.13587 12.4661 9.19588Z" fill="black"/>
<path d="M15.001 7.2832L14.918 8.6124L15.001 9.24588L15.084 8.6124L15.001 7.2832Z" fill="black"/>
<path d="M12.6385 8.60691C12.6117 8.66248 12.6434 8.72916 12.7044 8.75139C12.7655 8.77361 12.8387 8.74694 12.8631 8.69137C12.89 8.6358 12.8583 8.56912 12.7972 8.54689C12.7337 8.52467 12.6629 8.55134 12.6385 8.60691Z" fill="black"/>
<path d="M15.6294 7.36133L15.1704 8.62607L15.0703 9.25733L15.3315 8.66608L15.6294 7.36133Z" fill="black"/>
<path d="M12.971 8.08442C12.9295 8.13333 12.9393 8.20223 12.993 8.24002C13.0467 8.2778 13.1224 8.26891 13.1639 8.22001C13.2054 8.17111 13.1956 8.10221 13.1419 8.06442C13.0882 8.02663 13.0125 8.03552 12.971 8.08442Z" fill="black"/>
<path d="M16.2178 7.58008L15.4146 8.69589L15.1387 9.28048L15.5586 8.77147L16.2178 7.58008Z" fill="black"/>
<path d="M13.4442 7.65332C13.3905 7.69111 13.3807 7.76001 13.4222 7.80891C13.4637 7.85781 13.5394 7.8667 13.5931 7.82892C13.6468 7.79113 13.6566 7.72223 13.6151 7.67333C13.5736 7.62443 13.4954 7.61776 13.4442 7.65332Z" fill="black"/>
<path d="M16.7207 7.93359L15.6294 8.82047L15.1973 9.32281L15.7466 8.92716L16.7207 7.93359Z" fill="black"/>
<path d="M14.0198 7.35086C13.9588 7.37531 13.9295 7.43977 13.9539 7.49534C13.9808 7.55091 14.0516 7.5798 14.1126 7.55535C14.1736 7.5309 14.2054 7.46644 14.1785 7.41088C14.1541 7.35308 14.0833 7.32641 14.0198 7.35086Z" fill="black"/>
<path d="M17.1079 8.39062L15.7993 8.99077L15.2402 9.37308L15.8848 9.12191L17.1079 8.39062Z" fill="black"/>
<path d="M14.6663 7.19449C14.6004 7.20338 14.554 7.25895 14.5613 7.31897C14.5711 7.37898 14.6321 7.42121 14.698 7.41454C14.7639 7.40565 14.8128 7.35009 14.803 7.29007C14.7957 7.23006 14.7346 7.1856 14.6663 7.19449Z" fill="black"/>
<path d="M17.3521 8.92578L15.9189 9.19696L15.2695 9.43479L15.9629 9.34366L17.3521 8.92578Z" fill="black"/>
<path d="M15.3352 7.19449C15.2693 7.1856 15.2083 7.23006 15.1985 7.29007C15.1887 7.35009 15.2376 7.40565 15.3035 7.41454C15.3694 7.42344 15.4304 7.37898 15.4402 7.31897C15.4475 7.25895 15.4011 7.20116 15.3352 7.19449Z" fill="black"/>
<path d="M17.4351 9.50135L15.9751 9.42578L15.2793 9.50135L15.9751 9.57693L17.4351 9.50135Z" fill="black"/>
<path d="M15.9808 7.35055C15.9198 7.3261 15.8465 7.355 15.8221 7.41057C15.7953 7.46614 15.827 7.53282 15.888 7.55505C15.9491 7.57727 16.0223 7.5506 16.0467 7.49503C16.0711 7.43724 16.0418 7.37278 15.9808 7.35055Z" fill="black"/>
<path d="M17.3521 10.0732L15.9629 9.65532L15.2695 9.56641L15.9189 9.80202L17.3521 10.0732Z" fill="black"/>
<path d="M16.556 7.65426C16.5023 7.61648 16.4266 7.62537 16.3851 7.67427C16.3436 7.72317 16.3533 7.79207 16.4071 7.82986C16.4608 7.86765 16.5364 7.85876 16.578 7.80986C16.6195 7.76096 16.6097 7.69205 16.556 7.65426Z" fill="black"/>
<path d="M17.1079 10.6075L15.8848 9.87617L15.2402 9.625L15.7993 10.0073L17.1079 10.6075Z" fill="black"/>
<path d="M17.0291 8.08442C16.9876 8.03552 16.9119 8.02663 16.8582 8.06442C16.8045 8.10221 16.7947 8.17111 16.8363 8.22001C16.8778 8.26891 16.9534 8.2778 17.0072 8.24002C17.0584 8.20223 17.0706 8.1311 17.0291 8.08442Z" fill="black"/>
<path d="M16.7207 11.0667L15.7466 10.0731L15.1973 9.67969L15.6294 10.1798L16.7207 11.0667Z" fill="black"/>
<path d="M17.3651 8.60783C17.3382 8.55227 17.2674 8.52337 17.2064 8.54782C17.1454 8.57227 17.1136 8.63673 17.1405 8.6923C17.1673 8.74787 17.2381 8.77454 17.2992 8.75231C17.3602 8.73008 17.3895 8.66562 17.3651 8.60783Z" fill="black"/>
<path d="M16.2178 11.4191L15.5586 10.2278L15.1387 9.71875L15.4146 10.3056L16.2178 11.4191Z" fill="black"/>
<path d="M17.5335 9.19588C17.5237 9.13587 17.4627 9.09363 17.3968 9.1003C17.3308 9.10919 17.2845 9.16476 17.2918 9.22478C17.3015 9.28479 17.3626 9.32702 17.4285 9.32035C17.4969 9.31369 17.5432 9.25812 17.5335 9.19588Z" fill="black"/>
<path d="M15.6294 11.6421L15.3315 10.3396L15.0703 9.74609L15.1704 10.3774L15.6294 11.6421Z" fill="black"/>
</g>
<defs>
<clipPath id="clip0_614_156">
<rect width="30" height="19" fill="white"/>
</clipPath>
</defs>
</svg>