<svg width="30" height="19" viewBox="0 0 30 19" fill="none" xmlns="http://www.w3.org/2000/svg">
<g clip-path="url(#clip0_614_212)">
<path d="M30.0006 0H0V19.0004H30.0006V0Z" fill="#000066"/>
<path d="M0 0V2.12431L26.6465 19.0004H30.0006V16.8762L3.35407 6.33346e-05L0 0ZM30.0006 0V2.12424L3.35407 19.0004H0V16.8761L26.6465 0H30.0006Z" fill="white"/>
<path d="M12.5002 0V19.0004H17.5003V0H12.5002ZM0 6.33346V12.6669H30.0006V6.33346H0Z" fill="white"/>
<path d="M0 7.60015V11.4002H30.0006V7.60015H0ZM13.5003 0V19.0004H16.5003V0H13.5003Z" fill="#CC0000"/>
<path d="M0 19.0004L10.0002 12.6669H12.2362L2.23604 19.0004H0ZM0 0L10.0002 6.33346H7.76415L0 1.41622L0 0ZM17.7644 6.33346L27.7646 0H30.0006L20.0004 6.33346H17.7644ZM30.0006 19.0004L20.0004 12.6669H22.2364L30.0006 17.5842V19.0004Z" fill="#CC0000"/>
</g>
<defs>
<clipPath id="clip0_614_212">
<rect width="30" height="19" fill="white"/>
</clipPath>
</defs>
</svg>